# xmcd CD database file
#
# Track frame offsets:
#	150
#	16845
#	43132
#	81472
#	101950
#	127370
#	161007
#	176467
#	195325
#	212787
#	235237
#	251200
#	266317
#	286862
#	306760
#
# Disc length: 4415 seconds
#
# Revision: 1
# Processed by: cddbd v1.5.1PL2 Copyright (c) Steve Scherf et al.
# Submitted via: CDex 1.51
#
DISCID=d8113d0f
DTITLE=Clamp Campus Detectives - Clamp学園探偵団 Vocal Collection
DYEAR=1997
DGENRE=Anime
TTITLE0=ピアニィ・ピンク
TTITLE1=Gift
TTITLE2=玲くんのクッキング・マニュアル[アップルパイ編1]
TTITLE3=ようこそ メタリック・パーティー
TTITLE4=Stray Children
TTITLE5=玲くんのクッキング・マニュアル[アップルパイ編2]
TTITLE6=カフェテラスでお茶をどうぞ
TTITLE7=月夜のピエレット
TTITLE8=日曜日のシエスタ
TTITLE9=Cheri Cheri
TTITLE10=ぶくぶく空が…
TTITLE11=L'eternite
TTITLE12=Water Drop
TTITLE13=愛だけじゃない
TTITLE14=玲くんのクッキング・マニュアル[アップルパイ編3]
EXTD=YEAR: 1997
EXTT0=
EXTT1=
EXTT2=
EXTT3=
EXTT4=
EXTT5=
EXTT6=
EXTT7=
EXTT8=
EXTT9=
EXTT10=
EXTT11=
EXTT12=
EXTT13=
EXTT14=
PLAYORDER=
